HIERARCHY
ROOT Joint1
{
	OFFSET 0.000000 0.000000 0.000000
	CHANNELS 6 Xposition Yposition Zposition Xrotation Yrotation Zrotation
	JOINT Joint2
	{
		OFFSET -0.000000 0.000000 1.456275
		CHANNELS 6 Xposition Yposition Zposition Xrotation Yrotation Zrotation
		JOINT Joint3
		{
			OFFSET -0.000000 0.000002 1.471446
			CHANNELS 6 Xposition Yposition Zposition Xrotation Yrotation Zrotation
			JOINT Joint4
			{
				OFFSET 0.625745 0.000000 0.917755
				CHANNELS 6 Xposition Yposition Zposition Xrotation Yrotation Zrotation
				JOINT Joint5
				{
					OFFSET -0.629534 0.000001 0.940221
					CHANNELS 6 Xposition Yposition Zposition Xrotation Yrotation Zrotation
					JOINT Joint6
					{
						OFFSET -0.000001 0.113772 1.960660
						CHANNELS 6 Xposition Yposition Zposition Xrotation Yrotation Zrotation
						JOINT Joint7
						{
							OFFSET -0.669733 -0.113771 0.388340
							CHANNELS 6 Xposition Yposition Zposition Xrotation Yrotation Zrotation
							End Site
							{
								OFFSET 0.005509 0.005509 0.438980
							}
						}
					}
				}
			}
		}
	}
}
MOTION
Frames: 14
Frame Time: 0.041667
0.000000 0.000000 0.000000 -0.000000 1.019410 110.118769 -0.000000 -0.000000 1.456275 -0.000000 -42.049250 -0.000003 -0.000000 0.000002 1.471446 -0.000006 -1.133465 -88.373871 0.625744 0.000000 0.917755 -0.000003 56.525198 0.000000 -0.629534 0.000001 0.940221 -0.000002 1.709736 165.437523 -0.000001 0.113772 1.960661 -88.303855 99.997535 0.000026 -0.669733 -0.113771 0.388340 -1.598822 3.037504 -163.664037 
0.000000 0.000000 0.000000 -0.000000 1.019410 110.011207 -0.000000 0.000000 1.456275 0.000000 -42.052112 -0.000000 -0.000000 0.000002 1.471446 -0.000007 -1.133462 -88.287585 0.625745 0.000000 0.917755 -0.000005 56.601856 -0.000000 -0.629534 0.000001 0.940221 -0.000000 1.709738 165.275934 -0.000001 0.113772 1.960660 -88.303848 99.987747 0.000005 -0.669733 -0.113771 0.388339 -1.598310 3.038437 -163.723951 
0.000000 0.000000 0.000000 -0.000000 1.019410 109.833752 -0.000000 0.000000 1.456275 -0.000002 -42.056822 0.000000 -0.000000 0.000002 1.471445 -0.000005 -1.133464 -88.145237 0.625744 0.000000 0.917755 0.000003 56.728341 0.000000 -0.629534 0.000001 0.940221 -0.000001 1.709735 165.009311 -0.000001 0.113772 1.960661 -88.303862 99.971594 0.000011 -0.669733 -0.113771 0.388340 -1.597467 3.039977 -163.822811 
0.000000 0.000000 0.000000 -0.000000 1.019410 109.587879 -0.000000 0.000000 1.456275 0.000001 -42.063365 -0.000001 -0.000000 0.000002 1.471446 -0.000005 -1.133466 -87.947995 0.625745 0.000000 0.917755 -0.000006 56.903600 0.000003 -0.629534 0.000001 0.940221 -0.000001 1.709736 164.639907 -0.000001 0.113772 1.960661 -88.303868 99.949198 0.000007 -0.669733 -0.113770 0.388339 -1.596291 3.042104 -163.959770 
0.000000 0.000000 0.000000 -0.000000 1.019410 109.275056 -0.000000 -0.000000 1.456275 0.000002 -42.071687 0.000001 -0.000000 0.000002 1.471445 -0.000006 -1.133466 -87.697054 0.625744 0.000000 0.917755 -0.000007 57.126568 -0.000003 -0.629534 0.000001 0.940221 -0.000002 1.709735 164.169921 -0.000001 0.113772 1.960661 -88.303875 99.920723 0.000014 -0.669733 -0.113771 0.388340 -1.594787 3.044802 -164.134049 
0.000000 0.000000 0.000000 -0.000000 1.019410 108.896773 -0.000000 0.000000 1.456275 -0.000001 -42.081748 -0.000001 -0.000000 0.000002 1.471445 -0.000005 -1.133466 -87.393602 0.625744 0.000000 0.917755 -0.000000 57.396204 -0.000000 -0.629534 0.000001 0.940221 -0.000002 1.709735 163.601581 -0.000001 0.113772 1.960661 -88.303855 99.886271 0.000007 -0.669733 -0.113771 0.388340 -1.592961 3.048063 -164.344802 
0.000000 0.000000 0.000000 -0.000000 1.019410 108.454491 -0.000000 -0.000000 1.456275 0.000000 -42.093513 -0.000000 -0.000000 0.000002 1.471446 -0.000005 -1.133461 -87.038808 0.625744 0.000000 0.917755 -0.000007 57.711458 0.000003 -0.629534 0.000001 0.940221 -0.000004 1.709736 162.937113 -0.000001 0.113772 1.960661 -88.303862 99.846014 0.000022 -0.669733 -0.113771 0.388339 -1.590805 3.051872 -164.591180 
0.000000 0.000000 0.000000 -0.000000 1.019410 107.949705 -0.000000 0.000000 1.456275 0.000000 -42.106938 -0.000002 -0.000000 0.000002 1.471446 -0.000005 -1.133465 -86.633880 0.625745 0.000001 0.917755 -0.000007 58.071252 0.000000 -0.629533 0.000001 0.940221 -0.000003 1.709736 162.178703 -0.000001 0.113772 1.960661 -88.303875 99.800054 0.000008 -0.669733 -0.113771 0.388339 -1.588328 3.056202 -164.872379 
0.000000 0.000000 0.000000 -0.000000 1.019410 107.383886 -0.000000 0.000000 1.456275 -0.000001 -42.121995 -0.000001 -0.000000 0.000002 1.471446 -0.000005 -1.133466 -86.179980 0.625744 0.000000 0.917755 -0.000003 58.474561 0.000001 -0.629533 0.000001 0.940221 -0.000003 1.709735 161.328617 -0.000000 0.113772 1.960661 -88.303862 99.748533 0.000023 -0.669733 -0.113771 0.388340 -1.585524 3.061046 -165.187606 
0.000000 0.000000 0.000000 -0.000000 1.019410 106.758514 -0.000000 -0.000000 1.456275 0.000001 -42.138620 -0.000001 -0.000000 0.000002 1.471445 -0.000005 -1.133466 -85.678316 0.625745 0.000000 0.917755 0.000000 58.920320 -0.000002 -0.629534 0.000001 0.940221 -0.000000 1.709737 160.389029 -0.000001 0.113772 1.960661 -88.303841 99.691597 0.000012 -0.669733 -0.113772 0.388340 -1.582397 3.066377 -165.535987 
0.000000 0.000000 0.000000 -0.000000 1.019410 106.075044 -0.000000 -0.000000 1.456275 0.000001 -42.156795 0.000000 -0.000000 0.000002 1.471446 -0.000003 -1.133467 -85.130050 0.625744 0.000001 0.917755 -0.000002 59.407476 0.000002 -0.629534 0.000001 0.940221 -0.000003 1.709736 159.362192 -0.000002 0.113772 1.960661 -88.303875 99.629374 0.000020 -0.669733 -0.113771 0.388339 -1.578940 3.072181 -165.916742 
0.000000 0.000000 0.000000 -0.000000 1.019410 105.336243 -0.000000 0.000000 1.456275 0.000000 -42.176442 -0.000002 -0.000000 0.000002 1.471446 -0.000005 -1.133459 -84.537388 0.625745 0.000000 0.917755 0.000002 59.934077 0.000003 -0.629534 0.000001 0.940221 -0.000000 1.709735 158.252205 -0.000000 0.113772 1.960660 -88.303875 99.562110 0.000009 -0.669733 -0.113772 0.388340 -1.575161 3.078433 -166.328330 
0.000000 0.000000 0.000000 -0.000000 1.019410 104.549835 -0.000000 -0.000000 1.456275 0.000001 -42.197359 0.000001 -0.000000 0.000002 1.471446 -0.000005 -1.133465 -83.906552 0.625745 0.000001 0.917755 -0.000003 60.494617 0.000003 -0.629534 0.000001 0.940221 0.000001 1.709736 157.070705 -0.000001 0.113772 1.960661 -88.303841 99.490503 0.000024 -0.669733 -0.113771 0.388339 -1.571092 3.085056 -166.766432 
0.000000 0.000000 0.000000 -0.000000 1.019410 103.724858 -0.000000 0.000000 1.456275 0.000001 -42.219301 0.000000 -0.000000 0.000002 1.471446 -0.000004 -1.133465 -83.244754 0.625745 0.000000 0.917755 -0.000001 61.082641 0.000001 -0.629534 0.000001 0.940221 -0.000003 1.709735 155.831244 -0.000001 0.113772 1.960661 -88.303862 99.415398 -0.000006 -0.669733 -0.113772 0.388340 -1.566765 3.091970 -167.226035 
